<?xml version="1.0" encoding="utf-8" ?>
<svg xmlns="http://www.w3.org/2000/svg" xmlns:xlink="http://www.w3.org/1999/xlink" width="1024" height="1024">
	<path fill="#FEFEFE" d="M0 0L1024 0L1024 1024L0 1024L0 0Z"/>
	<path fill="#003A2B" d="M522.769 131.107C525.9 130.854 528.919 131.202 531.911 132.179C536.214 133.583 539.988 136.193 542.982 139.561C549.755 147.184 555.781 155.763 562.025 163.841L596.023 207.825C611.428 227.829 626.944 247.748 642.568 267.581C651.251 278.564 660.302 289.329 668.762 300.476C670.717 303.052 673.792 306.654 674.781 309.711C677.668 318.63 676.904 351.343 676.976 362.805C677.323 418.167 677.86 471.57 698.449 523.806C702.783 534.803 708.414 545.033 713.549 555.642C717.312 563.42 718.764 571.179 717.377 579.74C715.881 588.972 711.849 598.302 708.775 607.127L694.191 649.072L646.927 786.784C644.345 794.138 641.465 801.63 635.68 807.121C628.34 814.088 618.585 819.122 610 824.403L575.739 845.464L526.61 875.558C516.533 881.711 506.487 888.43 495.837 893.545C493.521 894.458 491.03 895.269 488.588 895.777C478.265 897.924 467.745 895.563 459.001 889.74C452.047 885.108 424.5 849.446 417.216 840.552L327.067 730.159C320.943 722.554 313.759 715.448 308.094 707.535C305.355 703.71 303.357 698.862 302.541 694.236C301.841 690.267 302.098 685.926 302.56 681.944C304.142 668.312 307.395 654.52 309.838 640.986L324.094 561.451C330.418 526.47 336.274 491.405 341.66 456.267C346.315 426.41 350.733 396.516 354.911 366.588C357.39 348.157 359.108 329.445 362.195 311.119C363.189 305.217 364.45 301.496 367.863 296.599C374.77 286.691 384.152 277.535 392.166 268.482L439.746 214.831L484.1 164.79C492.06 155.795 499.933 145.568 508.88 137.612C512.921 134.019 517.505 132.053 522.769 131.107Z"/>
	<defs>
		<linearGradient id="gradient_0" gradientUnits="userSpaceOnUse" x1="606.90601" y1="546.59045" x2="378.51596" y2="518.26544">
			<stop offset="0" stop-color="#127E4F"/>
			<stop offset="1" stop-color="#1C9456"/>
		</linearGradient>
	</defs>
	<path fill="url(#gradient_0)" d="M520.841 164.109L521.928 162.908C524.661 163.217 527.247 166.984 528.902 169.067C546.231 190.879 562.907 213.221 580.086 235.154C586.772 243.69 636.731 305.76 637.825 308.942C636.15 318.39 632.007 327.784 628.498 336.679C622.352 352.064 615.949 367.346 609.29 382.516C596.811 410.706 584.02 438.757 570.919 466.663L521.164 575.431L496.342 629.261C491.893 638.977 486.676 648.971 483.339 659.12C480.291 668.392 479.977 678.904 478.755 688.576L471.98 743.323C470.883 752.329 470.27 761.692 468.606 770.592C465.268 796.506 462.678 822.58 458.97 848.434C448.317 834.473 436.603 821.238 425.433 807.685L364.192 733.017L342.706 706.739C338.104 701.102 333.008 695.454 329.271 689.199C329.694 683.997 331.13 678.554 332.082 673.409C333.922 663.471 335.699 653.521 337.413 643.561L355.676 538.699C368.8 464.397 379.04 389.79 389.734 315.123C390.771 312.053 392.323 309.583 394.305 307.049C399.527 300.372 405.443 294.142 411.085 287.817L440.726 254.698L520.841 164.109Z"/>
	<path fill="#35BE5B" d="M520.841 164.109L521.928 162.908C524.661 163.217 527.247 166.984 528.902 169.067C546.231 190.879 562.907 213.221 580.086 235.154C586.772 243.69 636.731 305.76 637.825 308.942C624.585 318.715 612.615 330.859 600.549 342.062C575.966 364.871 551.819 388.146 528.122 411.873C512.884 426.906 497.842 442.136 482.999 457.56C477.166 463.685 470.726 469.778 465.421 476.349C466.074 440.973 465.553 405.481 465.735 370.091C453.041 360.401 439.845 351.252 426.903 341.888C414.551 332.951 402.343 323.686 389.734 315.123C390.771 312.053 392.323 309.583 394.305 307.049C399.527 300.372 405.443 294.142 411.085 287.817L440.726 254.698L520.841 164.109Z"/>
	<path fill="#AFFDAE" d="M520.841 164.109C519.993 171.257 517.444 178.643 515.524 185.567L506.296 219.053L478.835 320.294C474.418 336.808 469.435 353.414 465.735 370.091C453.041 360.401 439.845 351.252 426.903 341.888C414.551 332.951 402.343 323.686 389.734 315.123C390.771 312.053 392.323 309.583 394.305 307.049C399.527 300.372 405.443 294.142 411.085 287.817L440.726 254.698L520.841 164.109Z"/>
	<path fill="#75EA86" d="M389.734 315.123C402.343 323.686 414.551 332.951 426.903 341.888C439.845 351.252 453.041 360.401 465.735 370.091C465.553 405.481 466.074 440.973 465.421 476.349C459.379 488.921 451.484 501.02 444.471 513.096L404.639 581.793C394.81 598.759 385.066 615.774 375.41 632.839C370.426 641.651 365.773 651.777 359.799 659.912C350.408 668.777 338.924 681.541 329.271 689.199C329.694 683.997 331.13 678.554 332.082 673.409C333.922 663.471 335.699 653.521 337.413 643.561L355.676 538.699C368.8 464.397 379.04 389.79 389.734 315.123Z"/>
	<path fill="#0A6846" d="M329.271 689.199C338.924 681.541 350.408 668.777 359.799 659.912C372.157 673.717 385.771 686.507 398.825 699.656L468.606 770.592C465.268 796.506 462.678 822.58 458.97 848.434C448.317 834.473 436.603 821.238 425.433 807.685L364.192 733.017L342.706 706.739C338.104 701.102 333.008 695.454 329.271 689.199Z"/>
	<path fill="#0A6846" d="M650.401 354.971C651.106 356.086 650.485 375.646 650.48 379.103C650.447 407.584 650.678 436.606 654.881 464.814C660.254 500.869 672.918 534.005 688.763 566.636C647.304 620.89 606.236 675.443 565.563 730.289C545.466 757.593 525.164 784.747 504.661 811.748C499.096 819.306 493.477 826.824 487.806 834.303C488.59 822.552 490.653 810.634 492.148 798.924L500.364 734.087L505.68 691.019C506.72 682.793 507.271 674.078 509.619 666.113C512.454 656.496 517.338 647.103 521.491 637.974L541.947 593.191L606.7 452.077C621.695 420.004 638.23 388.233 650.401 354.971Z"/>
</svg>
